# xmcd CD database file
#
# Track frame offsets:
#	150
#	53495
#	87370
#	102553
#	118868
#	134765
#	161458
#	183720
#	204020
#	220790
#	246793
#	261740
#
# Disc length: 3711 seconds
#
# Revision: 0
# Processed by: cddbd v1.4PL0 Copyright (c) Steve Scherf et al.
# Submitted via: CDex 1.50beta9
#
DISCID=b30e7d0c
DTITLE=SHENANIGANS - 33 GREAT IRISH,JIGS and REELS VOL 1
DYEAR=1900
DGENRE=Country
TTITLE0=Rare Old Mountain Dew-All GodsCreatures-I'll Tell Me Ma-Miss McLeod's Reel-Whiskey Inn The Jar-McIllhation-Father Kell's Reel
TTITLE1=Muirsheen Durkin-Catch Me If You Can-Uncle Nobby's Steamboat-
TTITLE2=Stand Boys Stand-Old Maid In A Garret-Rody McCauley
TTITLE3=Noving Cloud-Jig-Humours Of Tullagh
TTITLE4=Do You Want Your Old Lobby Washed Dpwn
TTITLE5=Talkin' About Ireland-Martin's Reel-Clare To Here
TTITLE6=Drowsy Maggie-Irish Washerwoman-Mason's Apron-
TTITLE7=Sonny's Dream
TTITLE8=McCabes Favourite-THe Hoon Tune-THe Mountain Road
TTITLE9=The Fields Of Athenry
TTITLE10=The Humuors Of Donnybrook Farm-Mr McCabes'Fingers Reel
TTITLE11=Star Of The County Down-Dirty Old Town
EXTD=
EXTT0=
EXTT1=
EXTT2=
EXTT3=
EXTT4=
EXTT5=
EXTT6=
EXTT7=
EXTT8=
EXTT9=
EXTT10=
EXTT11=
PLAYORDER=
